<svg width="1512" height="604" viewBox="0 0 1512 604" fill="none" xmlns="http://www.w3.org/2000/svg">
<g clip-path="url(#clip0_5386_217512)">
<path d="M3063 735.171L2217.31 734.933L1918.12 436.691C1862.82 380.806 1794.26 373.926 1681.06 373.926H1470.75C1351.44 373.926 1236.99 389.802 1152.61 417.851L881.967 508.056C846.245 519.964 785.174 514.592 785.174 435.13V200.315C785.174 184.809 751.463 177.056 731.75 188.011L270.934 444.074C224.813 469.688 145.986 451.562 145.986 415.337V129.929C145.986 67.5342 80.972 16.9673 0.769287 16.9673H-202.503C-253.069 16.9673 -301.572 32.6057 -337.453 60.4162L-632.809 290.23C-716.478 355.297 -870.956 374.005 -935.759 290.23C-1211.24 -65.4323 -1478.87 -393.998 -1478.87 -393.998M3063 736.362L2217.31 736.124L1918.12 443.783C1862.82 389.009 1794.26 382.261 1681.06 382.261H1470.75C1351.44 382.261 1236.99 397.768 1152.61 425.34L881.967 513.746C846.245 525.415 785.174 520.15 785.174 442.301V212.091C785.174 196.902 751.463 189.308 731.75 200.051L270.934 451.033C224.813 476.145 145.986 458.363 145.986 422.853V143.107C145.986 81.9559 80.972 32.3944 0.769287 32.3944H-202.503C-253.069 32.3944 -301.572 47.7154 -337.453 74.9702L-632.809 300.232C-716.478 364.003 -870.956 382.261 -935.759 300.232C-1211.24 -48.3909 -1478.87 -370.447 -1478.87 -370.447M3063 737.553L2217.31 737.315L1918.12 450.901C1862.82 397.238 1794.26 390.623 1681.06 390.623H1470.75C1351.44 390.623 1236.99 405.785 1152.61 432.802L881.967 519.435C846.245 530.892 785.174 525.706 785.174 449.393V223.945C785.174 209.048 751.463 201.612 731.75 212.117L270.934 457.992C224.813 482.601 145.986 465.19 145.986 430.394V156.284C145.986 96.3768 80.972 47.7945 0.769287 47.7945H-202.503C-253.069 47.7945 -301.572 62.8244 -337.453 89.5235L-632.809 310.234C-716.478 372.735 -870.956 390.702 -935.759 310.234C-1211.24 -31.3503 -1478.87 -346.897 -1478.87 -346.897M3063 738.743L2217.31 738.531L1918.12 458.045C1862.82 405.494 1794.26 399.011 1681.06 399.011H1470.75C1351.44 399.011 1236.99 413.882 1152.61 440.343L881.967 525.15C846.245 536.343 785.174 531.263 785.174 456.537V235.667C785.174 221.087 751.463 213.81 731.75 224.104L270.934 464.951C224.813 489.057 145.986 471.99 145.986 437.908V169.462C145.986 110.798 80.972 63.221 0.769287 63.221H-202.503C-253.069 63.221 -301.572 77.9333 -337.453 104.077L-632.809 320.236C-716.478 381.441 -870.956 399.064 -935.759 320.236C-1211.24 -14.2038 -1478.87 -323.321 -1478.87 -323.321M3063 739.934L2217.31 739.696L1918.12 465.111C1862.82 413.644 1794.26 407.32 1681.06 407.32H1470.75C1351.44 407.32 1236.99 421.873 1152.61 447.752L881.967 530.893C846.245 541.847 785.174 536.873 785.174 463.708V247.443C785.174 233.18 751.463 226.062 731.75 236.144L270.934 471.911C224.813 495.514 145.986 478.791 145.986 445.45V182.64C145.986 125.193 80.972 78.6481 0.769287 78.6481H-202.503C-253.069 78.6481 -301.572 93.0164 -337.453 118.631L-632.941 330.318C-716.61 390.252 -871.088 407.479 -935.891 330.318C-1211.24 2.758 -1478.87 -299.77 -1478.87 -299.77M3063 741.151L2217.31 740.913L1918.12 472.202C1862.82 421.926 1794.26 415.655 1681.06 415.655H1470.75C1351.44 415.655 1236.99 429.891 1152.61 455.346L881.967 536.529C846.245 547.245 785.174 542.403 785.174 470.799V259.112C785.174 245.14 751.463 238.155 731.75 248.025L270.934 478.87C224.813 501.944 145.986 485.618 145.986 452.965V195.817C145.986 139.614 80.972 94.0482 0.769287 94.0482H-202.503C-253.069 94.0482 -301.572 108.125 -337.453 133.184L-632.809 340.373C-716.478 398.984 -870.956 415.867 -935.759 340.373C-1211.24 19.7987 -1478.87 -276.167 -1478.87 -276.167M3063 742.342L2217.31 742.13L1918.12 479.32C1862.82 430.076 1794.26 424.016 1681.06 424.016H1470.75C1351.44 424.016 1236.99 437.935 1152.61 462.729L881.967 542.111C846.245 552.696 785.174 547.853 785.174 477.838V270.913C785.174 257.259 751.463 250.432 731.75 260.09L270.934 485.908C224.813 508.48 145.986 492.497 145.986 460.585V209.206C145.986 154.247 80.972 109.686 0.769287 109.686H-202.503C-253.069 109.686 -301.572 123.446 -337.453 147.949L-632.809 350.269C-716.478 407.61 -870.956 424.096 -935.759 350.269C-1211.24 36.8392 -1478.87 -252.67 -1478.87 -252.67M3063 743.533L2217.31 743.321L1918.12 486.411C1862.82 438.279 1794.26 432.352 1681.06 432.352H1470.75C1351.44 432.352 1236.99 445.979 1152.61 470.191L881.967 547.907C846.245 558.174 785.174 553.516 785.174 485.062V282.821C785.174 269.458 751.463 262.79 731.75 272.236L270.934 492.789C224.813 514.857 145.986 499.219 145.986 468.021V222.172C145.986 168.456 80.972 124.902 0.769287 124.902H-202.503C-253.069 124.902 -301.572 138.344 -337.453 162.318L-632.809 360.272C-716.478 416.316 -870.956 432.431 -935.759 360.272C-1211.24 53.9069 -1478.87 -229.12 -1478.87 -229.12M3063 744.723L2217.31 744.511L1918.12 493.529C1862.82 446.508 1794.26 440.607 1681.06 440.607H1470.75C1351.44 440.607 1236.99 453.838 1152.61 477.653L881.967 553.596C846.245 563.624 785.174 559.073 785.174 492.206V294.596C785.174 281.551 751.463 275.041 731.75 284.25L270.934 499.748C224.813 521.313 145.986 506.045 145.986 475.562V235.35C145.986 182.851 80.972 140.302 0.769287 140.302H-202.503C-253.069 140.302 -301.572 153.532 -337.453 176.871L-632.809 370.274C-716.478 425.022 -870.956 440.793 -935.759 370.274C-1211.24 70.9475 -1478.87 -205.57 -1478.87 -205.57M3063 745.914L2217.31 745.729L1918.12 500.621C1862.82 454.711 1794.26 449.049 1681.06 449.049H1470.75C1351.44 449.049 1236.99 462.041 1152.61 485.142L881.967 559.232C846.245 569.023 785.174 564.524 785.174 499.298V306.371C785.174 293.643 751.463 287.293 731.75 296.29L270.934 506.707C224.813 527.876 145.986 512.846 145.986 483.078V248.554C145.986 197.273 80.972 155.729 0.769287 155.729H-202.503C-253.069 155.729 -301.572 168.562 -337.453 191.425L-632.809 380.277C-716.478 433.754 -870.956 449.075 -935.759 380.277C-1211.24 87.9888 -1478.87 -182.019 -1478.87 -182.019M3063 747.105L2217.31 746.92L1918.12 507.739C1862.82 462.914 1794.26 457.463 1681.06 457.463H1470.75C1351.44 457.463 1236.99 470.138 1152.61 492.683L881.967 564.974C846.245 574.526 785.174 570.266 785.174 506.469V318.173C785.174 305.736 751.463 299.518 731.75 308.303L270.934 513.666C224.813 534.2 145.986 519.673 145.986 490.619V261.731C145.986 211.694 80.972 171.129 0.769287 171.129H-202.503C-253.069 171.129 -301.572 183.671 -337.453 205.978L-632.809 390.279C-716.478 442.46 -870.956 457.49 -935.759 390.279C-1211.24 105.029 -1478.87 -158.442 -1478.87 -158.442M3063 748.322L2217.31 748.11L1918.12 514.83C1862.82 471.143 1794.26 465.745 1681.06 465.745H1470.75C1351.44 465.745 1236.99 478.102 1152.61 500.144L881.967 570.584C846.245 579.898 785.174 575.69 785.174 513.534V329.947C785.174 317.828 751.463 311.769 731.75 320.342L270.934 520.625C224.813 540.656 145.986 526.473 145.986 498.133V274.909C145.986 226.115 80.972 186.555 0.769287 186.555H-202.503C-253.069 186.555 -301.572 198.78 -337.453 220.531L-632.809 400.281C-716.478 451.192 -870.956 465.825 -935.759 400.281C-1211.24 122.097 -1478.87 -134.892 -1478.87 -134.892M3063 749.513L2217.31 749.328L1918.12 521.949C1862.82 479.347 1794.26 474.107 1681.06 474.107H1470.75C1351.44 474.107 1236.99 486.147 1152.61 507.58L881.967 576.379C846.245 585.455 785.174 581.327 785.174 520.811V341.749C785.174 329.921 751.463 324.021 731.75 332.356L270.934 527.585C224.813 547.113 145.986 533.274 145.986 505.675V288.087C145.986 240.457 80.972 201.983 0.769287 201.983H-202.503C-253.069 201.983 -301.572 213.89 -337.453 235.085L-632.809 410.283C-716.478 459.898 -870.956 474.16 -935.759 410.283C-1211.24 139.27 -1478.87 -111.342 -1478.87 -111.342M3063 750.703L2217.31 750.518L1918.12 529.04C1862.82 487.549 1794.26 482.442 1681.06 482.442H1470.75C1351.44 482.442 1236.99 494.191 1152.61 515.069L881.967 582.068C846.245 590.906 785.174 586.884 785.174 527.902V353.604C785.174 342.093 751.463 336.351 731.75 344.475L270.934 534.544C224.813 553.569 145.986 540.101 145.986 513.19V301.264C145.986 254.931 80.972 217.383 0.769287 217.383H-202.503C-253.069 217.383 -301.572 228.999 -337.453 249.639L-632.809 420.285C-716.478 468.63 -870.956 482.522 -935.759 420.285C-1211.24 156.178 -1478.87 -87.7653 -1478.87 -87.7653M3063 751.895L2217.31 751.709L1918.12 536.185C1862.82 495.805 1794.26 490.831 1681.06 490.831H1470.75C1351.44 490.831 1236.99 502.235 1152.61 522.584L881.967 587.757C846.245 596.357 785.174 592.467 785.174 535.021V365.3C785.174 354.107 751.463 348.524 731.75 356.435L270.934 541.477C224.813 560 145.986 546.769 145.986 520.705V314.31C145.986 269.326 80.972 232.677 0.769287 232.677H-202.503C-253.069 232.677 -301.572 243.976 -337.453 264.06L-632.809 430.341C-716.478 477.362 -870.956 490.884 -935.759 430.341C-1211.24 173.273 -1478.87 -64.2146 -1478.87 -64.2146M3063 753.165L2217.31 753.006L1918.12 543.25C1862.82 503.982 1794.26 499.139 1681.06 499.139H1470.75C1351.44 499.139 1236.99 510.253 1152.61 530.019L881.967 593.526C846.245 601.887 785.174 598.103 785.174 542.244V377.101C785.174 366.199 751.463 360.748 731.75 368.448L270.934 548.462C224.813 566.482 145.986 553.755 145.986 528.246V327.619C145.986 283.773 80.972 248.236 0.769287 248.236H-202.503C-253.069 248.236 -301.572 259.218 -337.453 278.772L-632.809 440.316C-716.478 486.041 -870.956 499.219 -935.759 440.316C-1211.24 190.287 -1478.87 -40.6646 -1478.87 -40.6646M3063 754.276L2217.31 754.117L1918.12 550.367C1862.82 512.184 1794.26 507.501 1681.06 507.501H1470.75C1351.44 507.501 1236.99 518.297 1152.61 537.507L881.967 599.135C846.245 607.259 785.174 603.58 785.174 549.309V388.876C785.174 378.292 751.463 372.999 731.75 380.488L270.934 555.421C224.813 572.912 145.986 560.528 145.986 535.787V340.797C145.986 298.194 80.972 263.636 0.769287 263.636H-202.503C-253.069 263.636 -301.572 274.221 -337.453 293.326L-632.809 450.318C-716.478 494.773 -870.956 507.553 -935.759 450.318C-1211.24 207.327 -1478.87 -17.1146 -1478.87 -17.1146M3063 755.467L2217.31 755.308L1918.12 557.354C1862.82 520.308 1794.26 515.73 1681.06 515.73H1470.75C1351.44 515.73 1236.99 526.315 1152.61 544.837L881.967 604.824C846.245 612.763 785.174 609.138 785.174 556.427V400.678C785.174 390.385 751.463 385.251 731.75 392.528L270.934 562.381C224.813 579.369 145.986 567.329 145.986 543.303V353.975C145.986 312.59 80.972 279.063 0.769287 279.063H-202.503C-253.069 279.063 -301.572 289.41 -337.453 307.879L-632.809 460.321C-716.478 503.479 -870.956 515.889 -935.759 460.321C-1211.24 224.368 -1478.87 6.436 -1478.87 6.436M3063 756.684L2217.31 756.525L1918.12 564.577C1862.82 528.617 1794.26 524.198 1681.06 524.198H1470.75C1351.44 524.198 1236.99 534.359 1152.61 552.458L881.967 610.513C846.245 618.187 785.174 614.721 785.174 563.572V412.453C785.174 402.477 751.463 397.502 731.75 404.515L270.934 569.34C224.813 585.825 145.986 574.156 145.986 550.817V367.152C145.986 327.01 80.972 294.464 0.769287 294.464H-202.503C-253.069 294.464 -301.572 304.519 -337.453 322.433L-632.809 470.323C-716.478 512.211 -870.956 524.25 -935.759 470.323C-1211.24 241.436 -1478.87 29.986 -1478.87 29.986M3063 757.875L2217.31 757.716L1918.12 571.669C1862.82 536.82 1794.26 532.533 1681.06 532.533H1470.75C1351.44 532.533 1236.99 542.403 1152.61 559.947L881.967 616.203C846.245 623.638 785.174 620.278 785.174 570.716V424.255C785.174 414.57 751.463 409.754 731.75 416.581L270.934 576.3C224.813 592.176 145.986 580.957 145.986 558.359V380.33C145.986 341.432 80.972 309.891 0.769287 309.891H-202.503C-253.069 309.891 -301.572 319.628 -337.453 336.987L-632.809 480.326C-716.478 520.917 -870.956 532.586 -935.759 480.326C-1211.24 258.477 -1478.87 53.5367 -1478.87 53.5367M3063 759.065L2217.31 758.906L1918.12 578.787C1862.82 545.049 1794.26 540.895 1681.06 540.895H1470.75C1351.44 540.895 1236.99 550.421 1152.61 567.356L881.967 621.892C846.245 629.089 785.174 625.834 785.174 577.834V436.03C785.174 426.663 751.463 421.979 731.75 428.594L270.934 583.259C224.813 598.738 145.986 587.783 145.986 565.9V393.507C145.986 355.853 80.972 325.291 0.769287 325.291H-202.503C-253.069 325.291 -301.572 334.737 -337.453 351.54L-632.809 490.328C-716.478 529.622 -870.956 540.948 -935.759 490.328C-1211.24 275.518 -1478.87 77.0867 -1478.87 77.0867M3063 760.256H2217.31L1918.12 585.905C1862.82 553.252 1794.26 549.23 1681.06 549.23H1470.75C1351.44 549.23 1236.99 558.465 1152.61 574.897L881.967 627.581C846.245 634.54 785.174 631.391 785.174 584.978V447.805C785.174 438.755 751.463 434.23 731.75 440.634L270.934 590.218C224.813 605.168 145.986 594.584 145.986 573.415V406.711C145.986 370.248 80.972 340.717 0.769287 340.717H-202.503C-253.069 340.717 -301.572 349.846 -337.453 366.093L-632.809 500.33C-716.478 538.354 -870.956 549.283 -935.759 500.33C-1211.24 292.585 -1478.87 100.769 -1478.87 100.769M3063 761.447H2217.31L1918.12 592.996C1862.82 561.455 1794.26 557.592 1681.06 557.592H1470.75C1351.44 557.592 1236.99 566.509 1152.61 582.359L881.967 633.297C846.245 640.018 785.174 636.975 785.174 592.123V459.607C785.174 450.848 751.463 446.376 731.75 452.674L270.934 597.177C224.813 611.625 145.986 601.385 145.986 580.957V419.889C145.986 384.669 80.972 356.144 0.769287 356.144H-202.503C-253.069 356.144 -301.572 364.956 -337.453 380.647L-632.941 510.306C-716.61 547.007 -871.088 557.592 -935.891 510.306C-1211.24 309.626 -1478.87 124.214 -1478.87 124.214M3063 762.637L2217.31 762.505L1918.12 600.114C1862.82 569.684 1794.26 565.927 1681.06 565.927H1470.75C1351.44 565.927 1236.99 574.526 1152.61 589.741L881.967 638.985C846.245 645.468 785.174 642.531 785.174 599.294V471.381C785.174 462.94 751.463 458.733 731.75 464.687L270.934 604.136C224.813 618.081 145.986 608.211 145.986 588.471V432.987C145.986 399.011 80.972 371.465 0.769287 371.465H-202.503C-253.069 371.465 -301.572 379.985 -337.453 395.121L-632.809 520.308C-716.478 555.739 -870.956 565.927 -935.759 520.308C-1211.24 326.614 -1478.87 147.711 -1478.87 147.711M3063 763.749H2217.31L1918.12 607.206C1862.82 577.887 1794.26 574.288 1681.06 574.288H1470.75C1351.44 574.288 1236.99 582.57 1152.61 597.336L881.967 644.674C846.245 650.919 785.174 648.088 785.174 606.385V483.262C785.174 475.112 751.463 471.064 731.75 476.806L270.934 611.095C224.813 624.537 145.986 615.011 145.986 596.012V446.217C145.986 413.485 80.972 386.944 0.769287 386.944H-202.503C-253.069 386.944 -301.572 395.147 -337.453 409.727L-632.809 530.363C-716.478 564.497 -870.956 574.314 -935.759 530.363C-1211.24 343.707 -1478.87 171.314 -1478.87 171.314M3063 765.045H2217.31L1918.12 614.324C1862.82 586.09 1794.26 582.571 1681.06 582.571H1470.75C1351.44 582.571 1236.99 590.509 1152.61 604.745L881.967 650.364C846.245 656.37 785.174 653.645 785.174 613.53V494.958C785.174 487.02 751.463 483.21 731.75 488.74L270.934 618.055C224.813 630.994 145.986 621.839 145.986 603.528V459.448C145.986 427.933 80.972 402.398 0.769287 402.398H-202.503C-253.069 402.398 -301.572 410.336 -337.453 424.334L-632.809 540.365C-716.478 573.23 -870.956 582.703 -935.759 540.365C-1211.24 360.775 -1478.87 194.838 -1478.87 194.838M3063 766.236L2217.31 766.104L1918.12 621.415C1862.82 594.319 1794.26 590.985 1681.06 590.985H1470.75C1351.44 590.985 1236.99 598.632 1152.61 612.286L881.967 656.052C846.245 661.821 785.174 659.201 785.174 620.674V506.733C785.174 499.218 751.463 495.461 731.75 500.78L270.934 625.014C224.813 637.45 145.986 628.639 145.986 611.069V472.678C145.986 442.407 80.972 417.877 0.769287 417.877H-202.503C-253.069 417.877 -301.572 425.472 -337.453 439.046L-632.809 550.367C-716.478 581.935 -870.956 591.011 -935.759 550.367C-1211.24 377.815 -1478.87 218.414 -1478.87 218.414M3063 767.427H2217.31L1918.12 628.533C1862.82 602.522 1794.26 599.426 1681.06 599.426H1470.75C1351.44 599.426 1236.99 606.783 1152.61 619.881L881.967 661.742C846.245 667.272 785.174 664.785 785.174 627.793V518.535C785.174 511.311 751.463 507.713 731.75 512.82L270.934 631.973C224.813 643.881 145.986 635.44 145.986 618.584V485.909C145.986 456.802 80.972 433.357 0.769287 433.357H-202.503C-253.069 433.357 -301.572 440.608 -337.453 453.574L-632.809 560.37C-716.478 590.641 -870.956 599.374 -935.759 560.37C-1211.24 394.857 -1478.87 241.965 -1478.87 241.965M3063 768.618H2217.31L1918.12 635.625C1862.82 610.725 1794.26 607.682 1681.06 607.682H1470.75C1351.44 607.682 1236.99 614.721 1152.61 627.237L881.967 667.431C846.245 672.723 785.174 670.342 785.174 634.937V530.31C785.174 523.404 751.463 519.964 731.75 524.833L270.934 638.932C224.813 650.337 145.986 642.266 145.986 626.125V498.954C145.986 471.17 80.972 448.678 0.769287 448.678H-202.503C-253.069 448.678 -301.572 455.637 -337.453 468.047L-632.809 570.372C-716.478 599.479 -870.956 607.708 -935.759 570.372C-1211.24 411.818 -1478.87 265.515 -1478.87 265.515M3063 769.809H2217.31L1918.12 642.796C1862.82 618.981 1794.26 616.07 1681.06 616.07H1470.75C1351.44 616.07 1236.99 622.792 1152.61 634.778L881.967 673.12C846.245 678.201 785.174 675.899 785.174 642.082V542.112C785.174 535.497 751.463 532.216 731.75 536.82L270.934 645.892C224.813 656.794 145.986 649.067 145.986 633.641V512.132C145.986 485.671 80.972 464.052 0.769287 464.052H-202.503C-253.069 464.052 -301.572 470.694 -337.453 482.575L-632.941 580.481C-716.61 608.185 -871.088 616.176 -935.891 580.481C-1211.24 428.965 -1478.87 289.092 -1478.87 289.092M3063 770.999H2217.31L1918.12 649.967C1862.82 627.29 1794.26 624.511 1681.06 624.511H1470.75C1351.44 624.511 1236.99 630.915 1152.61 642.319L881.967 678.809C846.245 683.652 785.174 681.455 785.174 649.199V553.94C785.174 547.642 751.463 544.493 731.75 548.939L270.934 652.851C224.813 663.25 145.986 655.867 145.986 641.182V525.309C145.986 499.986 80.972 479.479 0.769287 479.479H-202.503C-253.069 479.479 -301.572 485.803 -337.453 497.102L-632.809 590.403C-716.478 616.864 -870.956 624.405 -935.759 590.403C-1211.24 446.006 -1478.87 312.563 -1478.87 312.563M3063 772.216H2217.31L1918.12 656.952C1862.82 635.36 1794.26 632.714 1681.06 632.714H1470.75C1351.44 632.714 1236.99 638.826 1152.61 649.675L881.967 684.498C846.245 689.102 785.174 687.144 785.174 656.344V565.662C785.174 559.682 751.463 556.692 731.75 560.925L270.934 659.81C224.813 669.706 145.986 662.694 145.986 648.696V538.486C145.986 514.407 80.972 494.879 0.769287 494.879H-202.503C-253.069 494.879 -301.572 500.912 -337.453 511.655L-632.809 600.405C-716.478 625.516 -870.956 632.74 -935.759 600.405C-1211.24 463.046 -1478.87 336.192 -1478.87 336.192M3063 773.407H2217.31L1918.12 664.044C1862.82 643.59 1794.26 641.076 1681.06 641.076H1470.75C1351.44 641.076 1236.99 646.845 1152.61 657.164L881.967 690.214C846.245 694.554 785.174 692.595 785.174 663.488V577.464C785.174 571.775 751.463 568.943 731.75 572.965L270.934 666.77C224.813 676.137 145.986 669.416 145.986 656.185V551.664C145.986 528.829 80.972 510.306 0.769287 510.306H-202.503C-253.069 510.306 -301.572 516.021 -337.453 526.182L-632.809 610.408C-716.478 634.223 -870.956 641.102 -935.759 610.408C-1211.24 480.114 -1478.87 359.743 -1478.87 359.743M3063 774.598H2217.31L1918.12 671.135C1862.82 651.766 1794.26 649.385 1681.06 649.385H1470.75C1351.43 649.385 1236.99 654.862 1152.61 664.599L881.967 695.903C846.244 700.031 785.173 698.152 785.173 670.606V589.239C785.173 583.947 751.462 581.3 731.749 584.979L270.933 673.781C224.812 682.646 145.985 676.428 145.985 663.806V564.868C145.985 543.25 80.9713 525.706 0.768555 525.706H-202.503C-253.07 525.706 -301.573 530.998 -337.454 540.762L-632.942 620.41C-716.611 642.954 -871.089 649.517 -935.892 620.41C-1211.38 497.154 -1479 383.293 -1479 383.293M3063 775.789H2217.31L1918.12 678.254C1862.82 659.996 1794.26 657.747 1681.06 657.747H1470.75C1351.44 657.747 1236.99 663.039 1152.61 672.115L881.967 701.592C846.245 705.482 785.174 703.709 785.174 677.778V601.041C785.174 595.96 751.463 593.446 731.75 597.019L270.934 680.688C224.813 689.05 145.986 683.123 145.986 671.295V578.046C145.986 557.645 80.972 541.133 0.769287 541.133H-202.503C-253.069 541.133 -301.572 546.24 -337.453 555.316L-632.809 630.412C-716.478 651.581 -870.956 657.799 -935.759 630.412C-1211.24 514.196 -1478.87 406.844 -1478.87 406.844M3063 776.979H2217.31L1918.12 685.371C1862.82 668.225 1794.26 666.108 1681.06 666.108H1470.75C1351.44 666.108 1236.99 670.95 1152.61 679.577L881.967 707.281C846.245 710.933 785.174 709.266 785.174 684.895V612.921C785.174 608.158 751.463 605.803 731.75 609.164L270.934 687.647C224.813 695.585 145.986 689.923 145.986 678.809V591.223C145.986 572.066 80.972 556.56 0.769287 556.56H-202.503C-253.069 556.56 -301.572 561.349 -337.453 569.79L-632.809 640.414C-716.478 660.392 -870.956 666.134 -935.759 640.414C-1211.24 531.263 -1478.87 430.341 -1478.87 430.341M3063 778.17H2217.31L1918.12 692.463C1862.82 676.427 1794.26 674.443 1681.06 674.443H1470.75C1351.44 674.443 1236.99 678.994 1152.61 687.065L881.967 712.97C846.245 716.384 785.174 714.849 785.174 692.013V624.617C785.174 620.145 751.463 617.922 731.75 621.071L270.934 694.606C224.813 701.962 145.986 696.75 145.986 686.35V604.321C145.986 586.407 80.972 571.88 0.769287 571.88H-202.503C-253.069 571.88 -301.572 576.379 -337.453 584.37L-632.809 650.416C-716.478 669.098 -870.956 674.469 -935.759 650.416C-1211.24 548.303 -1478.87 453.97 -1478.87 453.97M3063 779.361H2217.31L1918.12 699.581C1862.82 684.631 1794.26 682.805 1681.06 682.805H1470.75C1351.44 682.805 1236.99 687.039 1152.61 694.554L881.967 718.766C846.245 721.941 785.174 720.512 785.174 699.264V636.392C785.174 632.238 751.463 630.174 731.75 633.111L270.934 701.566C224.813 708.393 145.986 703.55 145.986 693.866V617.579C145.986 600.908 80.972 587.387 0.769287 587.387H-202.503C-253.069 587.387 -301.572 591.568 -337.453 599.003L-632.809 660.551C-716.478 677.963 -870.956 682.964 -935.759 660.551C-1211.24 565.292 -1478.87 477.521 -1478.87 477.521M3063 780.578H2217.31L1918.12 706.752C1862.82 692.939 1794.26 691.219 1681.06 691.219H1470.75C1351.44 691.219 1236.99 695.135 1152.61 702.095L881.967 724.428C846.245 727.391 785.174 726.042 785.174 706.381V648.167C785.174 644.331 751.463 642.425 731.75 645.124L270.934 708.525C224.813 714.849 145.986 710.377 145.986 701.407V630.756C145.986 615.303 80.972 602.787 0.769287 602.787H-202.503C-253.069 602.787 -301.572 606.676 -337.453 613.556L-632.809 670.421C-716.478 686.536 -870.956 691.166 -935.759 670.421C-1211.24 582.385 -1478.87 501.071 -1478.87 501.071M3063 781.768H2217.31L1918.12 713.79C1862.82 701.062 1794.26 699.501 1681.06 699.501H1470.75C1351.44 699.501 1236.99 703.1 1152.61 709.504L881.967 730.037C846.245 732.683 785.174 731.519 785.174 713.446V659.969C785.174 656.423 751.463 654.676 731.75 657.164L270.934 715.484C224.813 721.305 145.986 717.177 145.986 708.921V643.933C145.986 629.724 80.972 618.213 0.769287 618.213H-202.503C-253.069 618.213 -301.572 621.759 -337.453 628.11L-632.809 680.449C-716.478 695.268 -870.956 699.528 -935.759 680.449C-1211.24 599.452 -1478.87 524.621 -1478.87 524.621M3063 782.96H2217.31L1918.12 720.882C1862.82 709.266 1794.26 707.837 1681.06 707.837H1470.75C1351.44 707.837 1236.99 711.145 1152.61 716.992L881.967 735.727C846.245 738.214 785.174 737.103 785.174 720.565V671.744C785.174 668.516 751.463 666.928 731.75 669.098L270.934 722.443C224.813 727.736 145.986 723.978 145.986 716.463V657.111C145.986 644.145 80.972 633.64 0.769287 633.64H-202.503C-253.069 633.64 -301.572 636.869 -337.453 642.664L-632.809 690.452C-716.478 703.974 -870.956 707.863 -935.759 690.452C-1211.24 616.494 -1478.87 548.171 -1478.87 548.171M3063 784.15H2217.31L1918.12 728.053C1862.82 717.469 1794.26 716.251 1681.06 716.251H1470.75C1351.44 716.251 1236.99 719.215 1152.61 724.507L881.967 741.495C846.245 743.718 785.174 742.712 785.174 727.762V683.546C785.174 680.608 751.463 679.153 731.75 681.217L270.934 729.349C224.813 734.165 145.986 730.752 145.986 724.057V670.289C145.986 658.566 80.972 649.12 0.769287 649.12H-202.503C-253.069 649.12 -301.572 652.057 -337.453 657.296L-632.809 700.454C-716.478 712.679 -870.956 716.331 -935.759 700.454C-1211.24 633.534 -1478.87 571.748 -1478.87 571.748M3063 785.341H2217.31L1918.12 735.065C1862.82 725.645 1794.26 724.481 1681.06 724.481H1470.75C1351.44 724.481 1236.99 727.127 1152.61 731.89L881.967 747.079C846.245 749.063 785.174 748.164 785.174 734.801V695.321C785.174 692.675 751.463 691.405 731.75 693.257L270.934 736.362C224.813 740.675 145.986 737.606 145.986 731.52V683.467C145.986 672.882 80.972 664.468 0.769287 664.468H-202.503C-253.069 664.468 -301.572 667.114 -337.453 671.771L-632.809 710.457C-716.478 721.412 -870.956 724.56 -935.759 710.457C-1211.24 650.602 -1478.87 595.299 -1478.87 595.299M3063 786.532H2217.31L1918.12 742.21C1862.82 733.901 1794.26 732.895 1681.06 732.895H1470.75C1351.43 732.895 1236.99 735.25 1152.61 739.405L881.967 752.821C846.244 754.593 785.173 753.773 785.173 741.972V707.096C785.173 704.794 751.462 703.656 731.749 705.27L270.933 743.321C224.812 747.105 145.985 744.432 145.985 739.034V696.697C145.985 687.436 80.9713 679.921 0.768555 679.921H-202.503C-247.57 679.637 -292.62 681.792 -337.454 686.377L-632.942 720.512C-716.611 730.17 -871.089 732.948 -935.892 720.512C-1211.38 667.59 -1479 618.901 -1479 618.901M3063 787.749H2217.31L1918.12 749.381C1862.82 742.183 1794.26 741.284 1681.06 741.284H1470.75C1351.44 741.284 1236.99 743.322 1152.61 746.947L881.967 758.457C846.245 759.992 785.174 759.304 785.174 749.063V718.898C785.174 716.887 751.463 715.908 731.75 717.31L270.934 750.281C224.813 753.562 145.986 751.233 145.986 746.576V709.822C145.986 701.883 80.972 695.295 0.769287 695.295H-202.503C-253.069 695.295 -301.572 697.306 -337.453 700.878L-632.809 730.461C-716.478 738.849 -870.956 741.257 -935.759 730.461C-1211.24 684.684 -1478.87 642.399 -1478.87 642.399M3063 788.94H2217.31L1918.12 756.419C1862.82 750.333 1794.26 749.592 1681.06 749.592H1470.75C1351.44 749.592 1236.99 751.312 1152.61 754.382L881.967 764.199C846.245 765.495 785.174 764.913 785.174 756.26V730.673C785.174 728.979 751.463 728.027 731.75 729.35L270.934 757.239C224.813 760.018 145.986 758.033 145.986 754.091V723.025C145.986 716.225 80.972 710.721 0.769287 710.721H-202.503C-253.069 710.721 -301.572 712.415 -337.453 715.431L-632.809 740.463C-716.478 747.555 -870.956 749.592 -935.759 740.463C-1211.24 701.724 -1478.87 665.843 -1478.87 665.843M3063 790.21H2217.31L1918.12 763.749C1862.82 758.748 1794.26 758.139 1681.06 758.139H1470.75C1351.44 758.139 1236.99 759.568 1152.61 762.055L881.967 769.994C846.245 771.052 785.174 770.576 785.174 763.484V742.58C785.174 741.178 751.463 740.49 731.75 741.469L270.934 764.199C224.813 766.474 145.986 764.86 145.986 761.552V736.124C145.986 730.567 80.972 726.042 0.769287 726.042H-202.503C-253.069 726.042 -301.572 727.444 -337.453 729.932L-632.809 750.518C-716.478 756.34 -870.956 758.007 -935.759 750.518C-1211.24 718.765 -1478.87 689.658 -1478.87 689.658M3063 791.321H2217.31L1918.12 770.629C1862.82 766.765 1794.26 766.289 1681.06 766.289H1470.75C1351.43 766.289 1236.99 767.374 1152.61 769.332L881.967 775.577C846.244 776.397 785.173 776.027 785.173 770.523V754.25C785.173 753.165 751.462 752.635 731.749 753.403L270.933 771.158C224.812 772.931 145.985 771.661 145.985 769.147V749.381C145.985 745.041 80.9713 741.442 0.768555 741.442H-202.503C-253.07 741.442 -301.573 742.527 -337.454 744.459L-632.942 760.336C-716.611 764.834 -871.089 766.131 -935.892 760.336C-1211.38 735.674 -1479 712.891 -1479 712.891M3063 792.512H2217.31L1918.12 777.747C1862.82 775.101 1794.26 774.624 1681.06 774.624H1470.75C1351.43 774.624 1236.99 775.418 1152.61 776.794L881.967 781.266C846.244 781.875 785.173 781.584 785.173 777.667V766.025C785.173 765.257 751.462 764.887 731.749 765.416L270.933 778.117C224.812 779.361 145.985 778.488 145.985 776.688V762.558C145.985 759.462 80.9713 756.948 0.768555 756.948H-202.503C-253.07 756.948 -301.573 757.742 -337.454 759.118L-632.942 770.496C-716.611 773.698 -871.089 774.624 -935.892 770.496C-1211.38 752.873 -1479 736.626 -1479 736.626M3063 793.702H2217.31L1918.12 784.917C1862.82 783.25 1794.26 783.065 1681.06 783.065H1470.75C1351.43 783.065 1236.99 783.541 1152.61 784.362L881.967 787.008C846.244 787.378 785.173 787.219 785.173 784.838V777.879C785.173 777.403 751.462 777.191 731.749 777.508L270.933 785.076C224.812 785.817 145.985 785.288 145.985 784.203V775.735C145.985 773.883 80.9713 772.375 0.768555 772.375H-202.503C-253.07 772.375 -301.573 772.851 -337.454 773.672L-632.942 780.498C-716.611 782.43 -871.089 782.986 -935.892 780.498C-1211.38 769.914 -1479 760.176 -1479 760.176M3063 794.893H2217.31L1918.12 791.956C1862.82 791.4 1794.26 791.321 1681.06 791.321H1470.75C1351.43 791.321 1236.99 791.48 1152.61 791.771L881.967 792.644C846.244 792.776 785.173 792.644 785.173 791.93V789.601C785.173 789.442 751.462 789.389 731.749 789.601L270.854 792.247C224.733 792.485 145.906 792.247 145.906 791.956V789.125C145.906 788.516 80.8918 788.013 0.689087 788.013H-202.503C-253.07 788.013 -301.573 788.172 -337.454 788.437L-632.942 790.712C-716.611 791.347 -871.089 791.533 -935.892 790.712C-1211.38 787.193 -1479 783.938 -1479 783.938M3063 796.111H2217.31L1918.12 799.048C1862.82 799.604 1794.26 799.683 1681.06 799.683H1470.75C1351.43 799.683 1236.99 799.524 1152.61 799.233L881.967 798.36C846.244 798.228 785.173 798.36 785.173 799.074V801.403C785.173 801.562 751.462 801.615 731.749 801.403L270.854 798.757C224.733 798.519 145.906 798.757 145.906 799.048V801.879C145.906 802.488 80.8918 802.991 0.689087 802.991H-202.503C-253.07 802.991 -301.573 802.832 -337.454 802.567L-632.942 800.292C-716.611 799.656 -871.089 799.471 -935.892 800.292C-1211.38 803.811 -1479 807.065 -1479 807.065M3063 797.301H2217.31L1918.12 806.086C1862.82 807.753 1794.26 807.939 1681.06 807.939H1470.75C1351.43 807.939 1236.99 807.462 1152.61 806.642L881.967 803.996C846.244 803.626 785.173 803.784 785.173 806.166V813.125C785.173 813.601 751.462 813.813 731.749 813.495L270.933 805.927C224.812 805.187 145.985 805.716 145.985 806.801V815.268C145.985 817.12 80.9713 818.629 0.768555 818.629H-202.503C-253.07 818.629 -301.573 818.152 -337.454 817.332L-632.942 810.505C-716.611 808.573 -871.089 808.018 -935.892 810.505C-1211.38 821.09 -1479 830.827 -1479 830.827M3063 798.492H2217.31L1918.12 813.257C1862.82 815.903 1794.26 816.379 1681.06 816.379H1470.75C1351.43 816.379 1236.99 815.586 1152.61 814.21L881.967 809.738C846.244 809.129 785.173 809.42 785.173 813.336V824.979C785.173 825.747 751.462 826.117 731.749 825.588L270.933 812.887C224.812 811.643 145.985 812.516 145.985 814.315V828.446C145.985 831.542 80.9713 834.055 0.768555 834.055H-202.503C-253.07 834.055 -301.573 833.261 -337.454 831.885L-632.942 820.507C-716.611 817.306 -871.089 816.379 -935.892 820.507C-1211.38 838.13 -1479 854.377 -1479 854.377M3063 799.683H2217.31L1918.12 820.376C1862.82 824.239 1794.26 824.715 1681.06 824.715H1470.75C1351.43 824.715 1236.99 823.63 1152.61 821.672L881.967 815.427C846.244 814.607 785.173 814.978 785.173 820.481V836.755C785.173 837.84 751.462 838.369 731.749 837.602L270.933 819.846C224.812 818.074 145.985 819.344 145.985 821.857V841.624C145.985 845.963 80.9713 849.562 0.768555 849.562H-202.503C-253.07 849.562 -301.573 848.477 -337.454 846.545L-632.942 830.669C-716.611 826.17 -871.089 824.874 -935.892 830.669C-1211.38 855.33 -1479 878.113 -1479 878.113M3063 800.794H2217.31L1918.12 827.255C1862.82 832.256 1794.26 832.865 1681.06 832.865H1470.75C1351.44 832.865 1236.99 831.436 1152.61 828.949L881.967 821.01C846.245 819.952 785.174 820.428 785.174 827.52V848.424C785.174 849.827 751.463 850.514 731.75 849.535L270.934 826.805C224.813 824.53 145.986 826.144 145.986 829.452V854.88C145.986 860.437 80.972 864.962 0.769287 864.962H-202.503C-253.069 864.962 -301.572 863.56 -337.453 861.073L-632.809 840.486C-716.478 834.664 -870.956 832.997 -935.759 840.486C-1211.24 872.239 -1478.87 901.346 -1478.87 901.346M3063 802.064H2217.31L1918.12 834.585C1862.82 840.671 1794.26 841.412 1681.06 841.412H1470.75C1351.44 841.412 1236.99 839.692 1152.61 836.622L881.967 826.805C846.245 825.509 785.174 826.091 785.174 834.744V860.331C785.174 862.025 751.463 862.978 731.75 861.655L270.934 833.765C224.813 830.986 145.986 832.971 145.986 836.914V867.979C145.986 874.779 80.972 880.283 0.769287 880.283H-202.503C-253.069 880.283 -301.572 878.59 -337.453 875.573L-632.809 850.541C-716.478 843.449 -870.956 841.412 -935.759 850.541C-1211.24 889.28 -1478.87 925.161 -1478.87 925.161M3063 803.255H2217.31L1918.12 841.623C1862.82 848.821 1794.26 849.72 1681.06 849.72H1470.75C1351.44 849.72 1236.99 847.683 1152.61 844.058L881.967 832.547C846.245 831.013 785.174 831.7 785.174 841.941V872.239C785.174 874.25 751.463 875.229 731.75 873.826L270.934 840.724C224.813 837.443 145.986 839.771 145.986 844.428V881.182C145.986 889.121 80.972 895.71 0.769287 895.71H-202.503C-253.069 895.71 -301.572 893.699 -337.453 890.126L-632.809 860.543C-716.478 852.155 -870.956 849.747 -935.759 860.543C-1211.24 906.32 -1478.87 948.605 -1478.87 948.605M3063 804.473H2217.31L1918.12 848.795C1862.82 857.104 1794.26 858.109 1681.06 858.109H1470.75C1351.43 858.109 1236.99 855.754 1152.61 851.6L881.967 838.184C846.244 836.411 785.173 837.231 785.173 849.033V883.908C785.173 886.21 751.462 887.348 731.749 885.734L270.933 847.683C224.812 843.899 145.985 846.572 145.985 851.97V894.308C145.985 903.569 80.9713 911.084 0.768555 911.084H-202.503C-247.57 911.367 -292.62 909.212 -337.454 904.627L-632.942 870.493C-716.611 860.835 -871.089 858.056 -935.892 870.493C-1211.38 923.415 -1479 972.103 -1479 972.103M3063 805.663H2217.31L1918.12 855.939C1862.82 865.359 1794.26 866.524 1681.06 866.524H1470.75C1351.44 866.524 1236.99 863.877 1152.61 859.114L881.967 843.926C846.245 841.941 785.174 842.841 785.174 856.204V895.736C785.174 898.382 751.463 899.653 731.75 897.8L270.934 854.642C224.813 850.329 145.986 853.399 145.986 859.485V907.538C145.986 918.122 80.972 926.537 0.769287 926.537H-202.503C-253.069 926.537 -301.572 923.891 -337.453 919.234L-632.809 880.548C-716.478 869.593 -870.956 866.444 -935.759 880.548C-1211.24 940.403 -1478.87 995.706 -1478.87 995.706M3063 806.854H2217.31L1918.12 862.951C1862.82 873.536 1794.26 874.753 1681.06 874.753H1470.75C1351.44 874.753 1236.99 871.789 1152.61 866.497L881.967 849.509C846.245 847.286 785.174 848.292 785.174 863.242V907.406C785.174 910.343 751.463 911.798 731.75 909.734L270.934 861.655C224.813 856.839 145.986 860.252 145.986 866.947V920.636C145.986 932.358 80.972 941.805 0.769287 941.805H-202.503C-253.069 941.805 -301.572 938.868 -337.453 933.629L-632.809 890.55C-716.478 878.325 -870.956 874.673 -935.759 890.55C-1211.24 957.47 -1478.87 1019.26 -1478.87 1019.26M3063 808.044H2217.31L1918.12 870.122C1862.82 881.738 1794.26 883.167 1681.06 883.167H1470.75C1351.44 883.167 1236.99 879.86 1152.61 874.012L881.967 855.277C846.245 852.79 785.174 853.901 785.174 870.439V919.26C785.174 922.488 751.463 924.076 731.75 921.906L270.934 868.561C224.813 863.269 145.986 867.026 145.986 874.541V933.893C145.986 946.859 80.972 957.364 0.769287 957.364H-202.503C-253.069 957.364 -301.572 954.136 -337.453 948.341L-632.809 900.552C-716.478 887.031 -870.956 883.141 -935.759 900.552C-1211.24 974.511 -1478.87 1042.83 -1478.87 1042.83M3063 809.235H2217.31L1918.12 877.213C1862.82 889.941 1794.26 891.502 1681.06 891.502H1470.75C1351.44 891.502 1236.99 887.904 1152.61 881.5L881.967 860.966C846.245 858.32 785.174 859.485 785.174 877.557V931.035C785.174 934.581 751.463 936.327 731.75 933.84L270.934 875.52C224.813 869.698 145.986 873.826 145.986 882.082V947.07C145.986 961.28 80.972 972.79 0.769287 972.79H-202.503C-253.069 972.79 -301.572 969.245 -337.453 962.894L-632.809 910.554C-716.478 895.736 -870.956 891.476 -935.759 910.554C-1211.24 991.551 -1478.87 1066.38 -1478.87 1066.38M3063 810.426H2217.31L1918.12 884.252C1862.82 898.065 1794.26 899.785 1681.06 899.785H1470.75C1351.44 899.785 1236.99 895.869 1152.61 888.91L881.967 866.577C846.245 863.613 785.174 864.962 785.174 884.623V942.837C785.174 946.674 751.463 948.579 731.75 945.88L270.934 882.479C224.813 876.155 145.986 880.627 145.986 889.598V960.248C145.986 975.702 80.972 988.218 0.769287 988.218H-202.503C-253.069 988.218 -301.572 984.328 -337.453 977.448L-632.809 920.583C-716.478 904.469 -870.956 899.838 -935.759 920.583C-1211.24 1008.62 -1478.87 1089.93 -1478.87 1089.93M3063 811.644H2217.31L1918.12 891.423C1862.82 906.374 1794.26 908.2 1681.06 908.2H1470.75C1351.44 908.2 1236.99 903.966 1152.61 896.451L881.967 872.239C846.245 869.064 785.174 870.493 785.174 891.741V954.506C785.174 958.661 751.463 960.725 731.75 957.787L270.934 889.439C224.813 882.612 145.986 887.454 145.986 897.139V973.426C145.986 990.096 80.972 1003.62 0.769287 1003.62H-202.503C-253.069 1003.62 -301.572 999.437 -337.453 992.002L-632.809 930.586C-716.478 913.174 -870.956 908.173 -935.759 930.586C-1211.24 1025.71 -1478.87 1113.48 -1478.87 1113.48M3063 812.834H2217.31L1918.12 898.541C1862.82 914.577 1794.26 916.561 1681.06 916.561H1470.75C1351.44 916.561 1236.99 912.01 1152.61 903.939L881.967 878.034C846.245 874.621 785.174 876.155 785.174 898.991V966.387C785.174 970.859 751.463 973.082 731.75 969.933L270.934 896.398C224.813 889.042 145.986 894.255 145.986 904.654V986.683C145.986 1004.6 80.972 1019.12 0.769287 1019.12H-202.503C-253.069 1019.12 -301.572 1014.63 -337.453 1006.63L-632.809 940.588C-716.478 921.906 -870.956 916.535 -935.759 940.588C-1211.24 1042.7 -1478.87 1137.03 -1478.87 1137.03M3063 814.025H2217.31L1918.12 905.633C1862.82 922.779 1794.26 924.896 1681.06 924.896H1470.75C1351.44 924.896 1236.99 920.054 1152.61 911.427L881.967 883.723C846.245 880.071 785.174 881.738 785.174 906.109V978.083C785.174 982.846 751.463 985.201 731.75 981.84L270.934 903.357C224.813 895.419 145.986 901.081 145.986 912.195V999.781C145.986 1018.94 80.972 1034.44 0.769287 1034.44H-202.503C-253.069 1034.44 -301.572 1029.66 -337.453 1021.21L-632.809 950.59C-716.478 930.612 -870.956 924.87 -935.759 950.59C-1211.24 1059.74 -1478.87 1160.66 -1478.87 1160.66M3063 815.215H2217.31L1918.12 912.75C1862.82 931.009 1794.26 933.258 1681.06 933.258H1470.75C1351.44 933.258 1236.99 927.966 1152.61 918.889L881.967 889.412C846.245 885.522 785.174 887.295 785.174 913.227V989.964C785.174 995.044 751.463 997.558 731.75 993.986L270.934 910.316C224.813 901.954 145.986 907.882 145.986 919.71V1012.96C145.986 1033.36 80.972 1050 0.769287 1050H-202.503C-253.069 1050 -301.572 1044.9 -337.453 1035.82L-632.809 960.592C-716.478 939.423 -870.956 933.205 -935.759 960.592C-1211.24 1076.81 -1478.87 1184.16 -1478.87 1184.16M3063 816.406H2217.31L1918.12 919.868C1862.82 939.238 1794.26 941.619 1681.06 941.619H1470.75C1351.43 941.619 1236.99 936.142 1152.61 926.404L881.967 895.101C846.244 890.973 785.173 892.852 785.173 920.398V1001.9C785.173 1007.19 751.462 1009.84 731.749 1006.16L270.933 917.222C224.812 908.358 145.985 914.576 145.985 927.198V1026.08C145.985 1047.7 80.9713 1065.24 0.768555 1065.24H-202.503C-253.07 1065.24 -301.573 1059.82 -337.454 1050.19L-632.942 970.541C-716.611 947.996 -871.089 941.434 -935.892 970.541C-1211.38 1093.8 -1479 1207.66 -1479 1207.66M3063 817.597H2217.31L1918.12 926.96C1862.82 947.415 1794.26 949.929 1681.06 949.929H1470.75C1351.44 949.929 1236.99 944.16 1152.61 933.84L881.967 900.791C846.245 896.451 785.174 898.409 785.174 927.516V1013.54C785.174 1019.23 751.463 1022.06 731.75 1018.04L270.934 924.235C224.813 914.868 145.986 921.589 145.986 934.819V1039.39C145.986 1062.23 80.972 1080.75 0.769287 1080.75H-202.503C-253.069 1080.75 -301.572 1075.04 -337.453 1064.88L-632.809 980.729C-716.478 956.914 -870.956 950.035 -935.759 980.729C-1211.24 1111.02 -1478.87 1231.39 -1478.87 1231.39M3063 818.788H2217.31L1918.12 934.052C1862.82 955.644 1794.26 958.29 1681.06 958.29H1470.75C1351.44 958.29 1236.99 952.178 1152.61 941.329L881.967 906.638C846.245 902.034 785.174 903.992 785.174 934.793V1025.47C785.174 1031.45 751.463 1034.44 731.75 1030.21L270.934 931.194C224.813 921.298 145.986 928.31 145.986 942.308V1052.52C145.986 1076.6 80.972 1096.13 0.769287 1096.13H-202.503C-253.069 1096.13 -301.572 1090.09 -337.453 1079.35L-632.809 990.599C-716.478 965.487 -870.956 958.264 -935.759 990.599C-1211.24 1127.96 -1478.87 1254.81 -1478.87 1254.81M3063 820.005H2217.31L1918.12 941.17C1862.82 963.847 1794.26 966.625 1681.06 966.625H1470.75C1351.44 966.625 1236.99 960.222 1152.61 948.817L881.967 912.195C846.245 907.352 785.174 909.549 785.174 941.805V1037.06C785.174 1043.36 751.463 1046.51 731.75 1042.07L270.934 938.153C224.813 927.754 145.986 935.137 145.986 949.823V1065.69C145.986 1091.02 80.972 1111.53 0.769287 1111.53H-202.503C-253.069 1111.53 -301.572 1105.2 -337.453 1093.9L-632.809 1000.6C-716.478 974.14 -870.956 966.599 -935.759 1000.6C-1211.24 1145 -1478.87 1278.44 -1478.87 1278.44M3063 821.196H2217.31L1918.12 948.208C1862.82 972.023 1794.26 974.934 1681.06 974.934H1470.75C1351.44 974.934 1236.99 968.213 1152.61 956.226L881.967 917.884C846.245 912.803 785.174 915.238 785.174 948.922V1048.89C785.174 1055.51 751.463 1058.79 731.75 1054.18L270.934 945.112C224.813 934.21 145.986 941.937 145.986 957.364V1078.87C145.986 1105.33 80.972 1126.95 0.769287 1126.95H-202.503C-253.069 1126.95 -301.572 1120.31 -337.453 1108.43L-632.941 1010.52C-716.61 982.819 -871.088 974.828 -935.891 1010.52C-1211.24 1162.04 -1478.87 1301.91 -1478.87 1301.91M3063 822.386H2217.31L1918.12 955.379C1862.82 980.279 1794.26 983.322 1681.06 983.322H1470.75C1351.44 983.322 1236.99 976.283 1152.61 963.767L881.967 923.573C846.245 918.281 785.174 920.662 785.174 956.067V1060.69C785.174 1067.6 751.463 1071.04 731.75 1066.17L270.934 952.071C224.813 940.667 145.986 948.737 145.986 964.879V1092.05C145.986 1119.83 80.972 1142.33 0.769287 1142.33H-202.503C-253.069 1142.33 -301.572 1135.37 -337.453 1122.96L-632.809 1020.63C-716.478 991.525 -870.956 983.295 -935.759 1020.63C-1211.24 1179.19 -1478.87 1325.49 -1478.87 1325.49M3063 823.577H2217.31L1918.12 962.47C1862.82 988.482 1794.26 991.577 1681.06 991.577H1470.75C1351.44 991.577 1236.99 984.221 1152.61 971.123L881.967 929.262C846.245 923.732 785.174 926.219 785.174 963.211V1072.47C785.174 1079.69 751.463 1083.29 731.75 1078.18L270.934 959.031C224.813 947.123 145.986 955.564 145.986 972.42V1105.23C145.986 1134.33 80.972 1157.78 0.769287 1157.78H-202.503C-253.069 1157.78 -301.572 1150.53 -337.453 1137.56L-632.809 1030.63C-716.478 1000.36 -870.956 991.63 -935.759 1030.63C-1211.24 1196.15 -1478.87 1349.04 -1478.87 1349.04M3063 824.768L2217.31 824.9L1918.12 969.589C1862.82 996.685 1794.26 1000.02 1681.06 1000.02H1470.75C1351.44 1000.02 1236.99 992.372 1152.61 978.85L881.967 934.952C846.245 929.183 785.174 931.803 785.174 970.33V1084.27C785.174 1091.79 751.463 1095.54 731.75 1090.22L270.934 965.99C224.813 953.554 145.986 962.365 145.986 979.935V1118.33C145.986 1148.6 80.972 1173.13 0.769287 1173.13H-202.503C-253.069 1173.13 -301.572 1165.53 -337.453 1151.96L-632.809 1040.64C-716.478 1009.07 -870.956 999.993 -935.759 1040.64C-1211.24 1213.19 -1478.87 1372.59 -1478.87 1372.59M3063 825.959H2217.31L1918.12 976.68C1862.82 1004.91 1794.26 1008.43 1681.06 1008.43H1470.75C1351.44 1008.43 1236.99 1000.5 1152.61 986.259L881.967 940.64C846.245 934.634 785.174 937.359 785.174 977.474V1096.05C785.174 1103.98 751.463 1107.79 731.75 1102.26L270.934 972.949C224.813 960.01 145.986 969.165 145.986 987.476V1131.56C145.986 1163.07 80.972 1188.61 0.769287 1188.61H-202.503C-253.069 1188.61 -301.572 1180.67 -337.453 1166.67L-632.809 1050.64C-716.478 1017.77 -870.956 1008.3 -935.759 1050.64C-1211.24 1230.23 -1478.87 1396.17 -1478.87 1396.17M3063 827.255H2217.31L1918.12 983.798C1862.82 1013.12 1794.26 1016.72 1681.06 1016.72H1470.75C1351.44 1016.72 1236.99 1008.43 1152.61 993.668L881.967 946.33C846.245 940.085 785.174 942.916 785.174 984.619V1107.74C785.174 1115.89 751.463 1119.94 731.75 1114.2L270.934 979.909C224.813 966.466 145.986 975.992 145.986 994.991V1144.79C145.986 1177.52 80.972 1204.06 0.769287 1204.06H-202.503C-253.069 1204.06 -301.572 1195.86 -337.453 1181.28L-632.809 1060.64C-716.478 1026.51 -870.956 1016.69 -935.759 1060.64C-1211.24 1247.3 -1478.87 1419.69 -1478.87 1419.69M3063 828.366L2217.31 828.499L1918.12 990.89C1862.82 1021.32 1794.26 1025.08 1681.06 1025.08H1470.75C1351.44 1025.08 1236.99 1016.48 1152.61 1001.26L881.967 952.019C846.245 945.536 785.174 948.473 785.174 991.71V1119.57C785.174 1128.01 751.463 1132.22 731.75 1126.26L270.934 986.868C224.813 972.923 145.986 982.793 145.986 1002.53V1158.02C145.986 1191.99 80.972 1219.54 0.769287 1219.54H-202.503C-253.069 1219.54 -301.572 1211.02 -337.453 1195.88L-632.809 1070.7C-716.478 1035.26 -870.956 1025.08 -935.759 1070.7C-1211.24 1264.39 -1478.87 1443.29 -1478.87 1443.29M3063 829.558H2217.31L1918.12 998.008C1862.82 1029.55 1794.26 1033.41 1681.06 1033.41H1470.75C1351.44 1033.41 1236.99 1024.5 1152.61 1008.65L881.967 957.708C846.245 950.987 785.174 954.03 785.174 998.881V1131.4C785.174 1140.16 751.463 1144.63 731.75 1138.33L270.934 993.96C224.813 979.512 145.986 989.752 145.986 1010.18V1171.25C145.986 1206.47 80.972 1234.99 0.769287 1234.99H-202.503C-253.069 1234.99 -301.572 1226.18 -337.453 1210.49L-632.941 1080.83C-716.61 1044.13 -871.088 1033.55 -935.891 1080.83C-1211.24 1281.38 -1478.87 1466.79 -1478.87 1466.79M3063 830.748H2217.31L1918.12 1005.1C1862.82 1037.75 1794.26 1041.77 1681.06 1041.77H1470.75C1351.44 1041.77 1236.99 1032.54 1152.61 1016.11L881.967 963.424C846.245 956.464 785.174 959.613 785.174 1006.03V1143.2C785.174 1152.25 751.463 1156.77 731.75 1150.37L270.934 1000.79C224.813 985.836 145.986 996.42 145.986 1017.59V1184.29C145.986 1220.76 80.972 1250.29 0.769287 1250.29H-202.503C-253.069 1250.29 -301.572 1241.16 -337.453 1224.91L-632.809 1090.67C-716.478 1052.65 -870.956 1041.72 -935.759 1090.67C-1211.24 1298.42 -1478.87 1490.37 -1478.87 1490.37M3063 831.939L2217.31 832.098L1918.12 1012.22C1862.82 1045.96 1794.26 1050.11 1681.06 1050.11H1470.75C1351.44 1050.11 1236.99 1040.58 1152.61 1023.65L881.967 969.112C846.245 961.915 785.174 965.17 785.174 1013.17V1154.97C785.174 1164.34 751.463 1169.03 731.75 1162.41L270.934 1007.75C224.813 992.266 145.986 1003.22 145.986 1025.1V1197.5C145.986 1235.15 80.972 1265.71 0.769287 1265.71H-202.503C-253.069 1265.71 -301.572 1256.27 -337.453 1239.46L-632.809 1100.68C-716.478 1061.38 -870.956 1050.06 -935.759 1100.68C-1211.24 1315.49 -1478.87 1513.92 -1478.87 1513.92M3063 833.13L2217.31 833.288L1918.12 1019.34C1862.82 1054.18 1794.26 1058.47 1681.06 1058.47H1470.75C1351.44 1058.47 1236.99 1048.6 1152.61 1031.06L881.967 974.802C846.245 967.366 785.174 970.727 785.174 1020.29V1166.75C785.174 1176.43 751.463 1181.25 731.75 1174.42L270.934 1014.7C224.813 998.828 145.986 1010.05 145.986 1032.65V1210.67C145.986 1249.57 80.972 1281.11 0.769287 1281.11H-202.503C-253.069 1281.11 -301.572 1271.38 -337.453 1254.02L-632.809 1110.68C-716.478 1070.09 -870.956 1058.42 -935.759 1110.68C-1211.24 1332.66 -1478.87 1537.47 -1478.87 1537.47M3063 834.32L2217.31 834.479L1918.12 1026.43C1862.82 1062.39 1794.26 1066.81 1681.06 1066.81H1470.75C1351.44 1066.81 1236.99 1056.65 1152.61 1038.55L881.967 980.49C846.245 972.817 785.174 976.283 785.174 1027.43V1178.55C785.174 1188.53 751.463 1193.5 731.75 1186.49L270.934 1021.66C224.813 1005.18 145.986 1016.85 145.986 1040.19V1223.88C145.986 1264.02 80.972 1296.57 0.769287 1296.57H-202.503C-253.069 1296.57 -301.572 1286.51 -337.453 1268.6L-632.809 1120.68C-716.478 1078.79 -870.956 1066.75 -935.759 1120.68C-1211.24 1349.57 -1478.87 1561.02 -1478.87 1561.02M3063 835.537L2217.31 835.696L1918.12 1033.65C1862.82 1070.7 1794.26 1075.27 1681.06 1075.27H1470.75C1351.44 1075.27 1236.99 1064.69 1152.61 1046.17L881.967 986.18C846.245 978.241 785.174 981.866 785.174 1034.58V1190.33C785.174 1200.62 751.463 1205.75 731.75 1198.48L270.934 1028.62C224.813 1011.63 145.986 1023.67 145.986 1047.7V1237.03C145.986 1278.41 80.972 1311.94 0.769287 1311.94H-202.503C-253.069 1311.94 -301.572 1301.59 -337.453 1283.12L-632.809 1130.68C-716.478 1087.53 -870.956 1075.11 -935.759 1130.68C-1211.24 1366.64 -1478.87 1584.57 -1478.87 1584.57M3063 836.729L2217.31 836.887L1918.12 1040.64C1862.82 1078.82 1794.26 1083.5 1681.06 1083.5H1470.75C1351.44 1083.5 1236.99 1072.71 1152.61 1053.5L881.967 991.869C846.245 983.746 785.174 987.424 785.174 1041.7V1202.13C785.174 1212.71 751.463 1218 731.75 1210.52L270.934 1035.58C224.813 1018.09 145.986 1030.48 145.986 1055.22V1250.21C145.986 1292.81 80.972 1327.37 0.769287 1327.37H-202.503C-253.069 1327.37 -301.572 1316.78 -337.453 1297.68L-632.809 1140.69C-716.478 1096.23 -870.956 1083.45 -935.759 1140.69C-1211.24 1383.68 -1478.87 1608.12 -1478.87 1608.12M3063 837.84L2217.31 837.998L1918.12 1047.75C1862.82 1087.02 1794.26 1091.86 1681.06 1091.86H1470.75C1351.44 1091.86 1236.99 1080.75 1152.61 1060.98L881.967 997.479C846.245 989.117 785.174 992.901 785.174 1048.76V1213.82C785.174 1224.73 751.463 1230.18 731.75 1222.48L270.934 1042.54C224.813 1024.52 145.986 1037.25 145.986 1062.76V1263.39C145.986 1307.23 80.972 1342.77 0.769287 1342.77H-202.503C-253.069 1342.77 -301.572 1331.79 -337.453 1312.23L-632.809 1150.69C-716.478 1104.96 -870.956 1091.79 -935.759 1150.69C-1211.24 1400.72 -1478.87 1631.67 -1478.87 1631.67M3063 839.11L2217.31 839.295L1918.12 1054.82C1862.82 1095.2 1794.26 1100.17 1681.06 1100.17H1470.75C1351.44 1100.17 1236.99 1088.77 1152.61 1068.42L881.967 1003.25C846.245 994.647 785.174 998.537 785.174 1055.98V1225.7C785.174 1236.9 751.463 1242.48 731.75 1234.57L270.934 1049.53C224.813 1031 145.986 1044.24 145.986 1070.3V1276.69C145.986 1321.68 80.972 1358.33 0.769287 1358.33H-202.503C-253.069 1358.33 -301.572 1347.03 -337.453 1326.94L-632.809 1160.66C-716.478 1113.64 -870.956 1100.12 -935.759 1160.66C-1211.24 1417.73 -1478.87 1655.22 -1478.87 1655.22M3063 840.3L2217.31 840.486L1918.12 1061.96C1862.82 1103.45 1794.26 1108.56 1681.06 1108.56H1470.75C1351.44 1108.56 1236.99 1096.81 1152.61 1075.94L881.967 1008.94C846.245 1000.1 785.174 1004.12 785.174 1063.1V1237.4C785.174 1248.91 751.463 1254.65 731.75 1246.53L270.934 1056.46C224.813 1037.43 145.986 1050.9 145.986 1077.81V1289.74C145.986 1336.07 80.972 1373.62 0.769287 1373.62H-202.503C-253.069 1373.62 -301.572 1362 -337.453 1341.37L-632.809 1170.72C-716.478 1122.37 -870.956 1108.48 -935.759 1170.72C-1211.24 1434.83 -1478.87 1678.77 -1478.87 1678.77M3063 841.491L2217.31 841.676L1918.12 1069.06C1862.82 1111.66 1794.26 1116.9 1681.06 1116.9H1470.75C1351.44 1116.9 1236.99 1104.86 1152.61 1083.42L881.967 1014.62C846.245 1005.55 785.174 1009.68 785.174 1070.19V1249.2C785.174 1261.03 751.463 1266.93 731.75 1258.6L270.934 1063.42C224.813 1043.89 145.986 1057.73 145.986 1085.33V1302.92C145.986 1350.55 80.972 1389.02 0.769287 1389.02H-202.503C-253.069 1389.02 -301.572 1377.11 -337.453 1355.92L-632.809 1180.72C-716.478 1131.11 -870.956 1116.84 -935.759 1180.72C-1211.24 1451.87 -1478.87 1702.35 -1478.87 1702.35M3063 842.682L2217.31 842.894L1918.12 1076.17C1862.82 1119.86 1794.26 1125.26 1681.06 1125.26H1470.75C1351.44 1125.26 1236.99 1112.9 1152.61 1090.86L881.967 1020.42C846.245 1011.11 785.174 1015.31 785.174 1077.47V1261.14C785.174 1273.25 751.463 1279.31 731.75 1270.74L270.934 1070.38C224.813 1050.35 145.986 1064.53 145.986 1092.87V1316.1C145.986 1364.89 80.972 1404.45 0.769287 1404.45H-202.503C-253.069 1404.45 -301.572 1392.22 -337.453 1370.47L-632.809 1190.72C-716.478 1139.81 -870.956 1125.18 -935.759 1190.72C-1211.24 1468.91 -1478.87 1725.9 -1478.87 1725.9M3063 843.899L2217.31 844.084L1918.12 1083.27C1862.82 1128.09 1794.26 1133.54 1681.06 1133.54H1470.75C1351.44 1133.54 1236.99 1120.87 1152.61 1098.32L881.967 1026.03C846.245 1016.48 785.174 1020.74 785.174 1084.54V1272.83C785.174 1285.27 751.463 1291.49 731.75 1282.7L270.934 1077.34C224.813 1056.8 145.986 1071.33 145.986 1100.39V1329.27C145.986 1379.31 80.972 1419.88 0.769287 1419.88H-202.503C-253.069 1419.88 -301.572 1407.33 -337.453 1385.03L-632.809 1200.73C-716.478 1148.54 -870.956 1133.51 -935.759 1200.73C-1211.24 1485.97 -1478.87 1749.45 -1478.87 1749.45M3063 845.09L2217.31 845.275L1918.12 1090.38C1862.82 1136.29 1794.26 1141.96 1681.06 1141.96H1470.75C1351.44 1141.96 1236.99 1128.96 1152.61 1105.86L881.967 1031.77C846.245 1021.98 785.174 1026.48 785.174 1091.71V1284.69C785.174 1297.41 751.463 1303.76 731.75 1294.77L270.934 1084.3C224.813 1063.13 145.986 1078.16 145.986 1107.93V1342.45C145.986 1393.73 80.972 1435.28 0.769287 1435.28H-202.503C-253.069 1435.28 -301.572 1422.44 -337.453 1399.58L-632.809 1210.73C-716.478 1157.25 -870.956 1141.93 -935.759 1210.73C-1211.24 1503.02 -1478.87 1773.02 -1478.87 1773.02M3063 846.281L2217.31 846.492L1918.12 1097.47C1862.82 1144.5 1794.26 1150.4 1681.06 1150.4H1470.75C1351.44 1150.4 1236.99 1137.17 1152.61 1113.35L881.967 1037.41C846.245 1027.38 785.174 1031.93 785.174 1098.8V1296.41C785.174 1309.45 751.463 1315.96 731.75 1306.75L270.934 1091.26C224.813 1069.69 145.986 1084.96 145.986 1115.44V1355.65C145.986 1408.15 80.972 1450.7 0.769287 1450.7H-202.503C-253.069 1450.7 -301.572 1437.47 -337.453 1414.13L-632.809 1220.73C-716.478 1165.98 -870.956 1150.21 -935.759 1220.73C-1211.24 1520.06 -1478.87 1796.57 -1478.87 1796.57M3063 847.472L2217.31 847.683L1918.12 1104.59C1862.82 1152.73 1794.26 1158.65 1681.06 1158.65H1470.75C1351.44 1158.65 1236.99 1145.03 1152.61 1120.81L881.967 1043.1C846.245 1032.83 785.174 1037.49 785.174 1105.94V1308.18C785.174 1321.41 751.463 1328.21 731.75 1318.77L270.934 1098.22C224.813 1076.15 145.986 1091.79 145.986 1122.98V1368.83C145.986 1422.55 80.972 1466.1 0.769287 1466.1H-202.503C-253.069 1466.1 -301.572 1452.66 -337.453 1428.69L-632.809 1230.73C-716.478 1174.69 -870.956 1158.57 -935.759 1230.73C-1211.24 1537.1 -1478.87 1820.12 -1478.87 1820.12M3063 848.662L2217.31 848.874L1918.12 1111.68C1862.82 1160.93 1794.26 1166.99 1681.06 1166.99H1470.75C1351.44 1166.99 1236.99 1153.07 1152.61 1128.28L881.967 1048.89C846.245 1038.31 785.174 1043.15 785.174 1113.17V1320.09C785.174 1333.74 751.463 1340.57 731.75 1330.91L270.934 1105.1C224.813 1082.52 145.986 1098.51 145.986 1130.42V1381.8C145.986 1436.76 80.972 1481.32 0.769287 1481.32H-202.503C-253.069 1481.32 -301.572 1467.56 -337.453 1443.06L-632.809 1240.73C-716.478 1183.39 -870.956 1166.91 -935.759 1240.73C-1211.24 1554.16 -1478.87 1843.67 -1478.87 1843.67M3063 849.853L2217.31 850.091L1918.12 1118.8C1862.82 1169.08 1794.26 1175.35 1681.06 1175.35H1470.75C1351.44 1175.35 1236.99 1161.11 1152.61 1135.66L881.967 1054.48C846.245 1043.89 785.174 1048.6 785.174 1120.2V1331.76C785.174 1345.73 751.463 1352.72 731.75 1342.85L270.934 1112.13C224.813 1089.06 145.986 1105.39 145.986 1138.04V1395.19C145.986 1451.39 80.972 1496.96 0.769287 1496.96H-202.503C-253.069 1496.96 -301.572 1482.88 -337.453 1457.82L-632.809 1250.63C-716.478 1192.02 -870.956 1175.14 -935.759 1250.63C-1211.24 1571.21 -1478.87 1867.17 -1478.87 1867.17M3063 851.07L2217.31 851.308L1918.12 1125.89C1862.82 1177.36 1794.26 1183.68 1681.06 1183.68H1470.75C1351.44 1183.68 1236.99 1169.13 1152.61 1143.25L881.967 1060.11C846.245 1049.16 785.174 1054.13 785.174 1127.3V1343.51C785.174 1357.77 751.463 1364.89 731.75 1354.81L270.934 1119.09C224.813 1095.49 145.986 1112.21 145.986 1145.55V1408.36C145.986 1465.81 80.972 1512.36 0.769287 1512.36H-202.503C-253.069 1512.36 -301.572 1497.99 -337.453 1472.37L-632.941 1260.69C-716.61 1200.75 -871.088 1183.53 -935.891 1260.69C-1211.24 1588.25 -1478.87 1890.77 -1478.87 1890.77M3063 852.261L2217.31 852.473L1918.12 1132.96C1862.82 1185.51 1794.26 1191.99 1681.06 1191.99H1470.75C1351.44 1191.99 1236.99 1177.12 1152.61 1150.66L881.967 1065.85C846.245 1054.66 785.174 1059.74 785.174 1134.47V1355.34C785.174 1369.92 751.463 1377.19 731.75 1366.9L270.934 1126.05C224.813 1101.95 145.986 1119.01 145.986 1153.1V1421.54C145.986 1480.21 80.972 1527.78 0.769287 1527.78H-202.503C-253.069 1527.78 -301.572 1513.07 -337.453 1486.93L-632.809 1270.77C-716.478 1209.56 -870.956 1191.94 -935.759 1270.77C-1211.24 1605.21 -1478.87 1914.32 -1478.87 1914.32M3063 853.451L2217.31 853.689L1918.12 1140.1C1862.82 1193.77 1794.26 1200.38 1681.06 1200.38H1470.75C1351.44 1200.38 1236.99 1185.22 1152.61 1158.2L881.967 1071.57C846.245 1060.11 785.174 1065.3 785.174 1141.61V1367.06C785.174 1381.96 751.463 1389.39 731.75 1378.89L270.934 1133.01C224.813 1108.4 145.986 1125.81 145.986 1160.61V1434.72C145.986 1494.63 80.972 1543.21 0.769287 1543.21H-202.503C-253.069 1543.21 -301.572 1528.18 -337.453 1501.48L-632.809 1280.77C-716.478 1218.27 -870.956 1200.3 -935.759 1280.77C-1211.24 1622.35 -1478.87 1937.9 -1478.87 1937.9M3063 854.643L2217.31 854.881L1918.12 1147.22C1862.82 1202 1794.26 1208.74 1681.06 1208.74H1470.75C1351.44 1208.74 1236.99 1193.24 1152.61 1165.66L881.967 1077.26C846.245 1065.59 785.174 1070.86 785.174 1148.7V1378.91C785.174 1394.1 751.463 1401.7 731.75 1390.95L270.934 1139.97C224.813 1114.86 145.986 1132.64 145.986 1168.15V1447.9C145.986 1509.05 80.972 1558.61 0.769287 1558.61H-202.503C-253.069 1558.61 -301.572 1543.29 -337.453 1516.03L-632.809 1290.77C-716.478 1227 -870.956 1208.74 -935.759 1290.77C-1211.24 1639.4 -1478.87 1961.45 -1478.87 1961.45M3063 855.833L2217.31 856.071L1918.12 1154.31C1862.82 1210.2 1794.26 1217.08 1681.06 1217.08H1470.75C1351.44 1217.08 1236.99 1201.2 1152.61 1173.15L881.967 1082.95C846.245 1071.04 785.174 1076.41 785.174 1155.87V1390.69C785.174 1406.19 751.463 1413.95 731.75 1402.99L270.934 1146.93C224.813 1121.32 145.986 1139.44 145.986 1175.67V1461.08C145.986 1523.47 80.972 1574.04 0.769287 1574.04H-202.503C-253.069 1574.04 -301.572 1558.4 -337.453 1530.59L-632.809 1300.91C-716.478 1235.84 -870.956 1217.13 -935.759 1300.91C-1211.24 1656.44 -1478.87 1985 -1478.87 1985" stroke="#FF4D00" stroke-width="0.75" stroke-miterlimit="10"/>
</g>
<defs>
<clipPath id="clip0_5386_217512">
<rect width="1512" height="604" fill="white"/>
</clipPath>
</defs>
</svg>
